<svg xmlns="http://www.w3.org/2000/svg" viewBox="0 0 1600 229"><defs><style>.cls-1{fill:#faf022;}.cls-2{fill:#FFFFFF;}</style></defs><g id="Capa_2" data-name="Capa 2"><g id="Capa_1-2" data-name="Capa 1"><path class="cls-1" d="M.1,75.05c0-24,0-47.95-.07-71.93C0,.63.6-.36,3.1.11a8.33,8.33,0,0,0,1.5,0Q800,.13,1595.4,0c3.75,0,4.63.84,4.6,4.59-.2,23.48-.1,47-.1,70.43a23.2,23.2,0,0,0-2.48-.27c-27.63.1-55.22,1-82.79,3.11q-41,3.19-81.65,9.57c-40.19,6.36-79.88,15.21-119.31,25.22-57,14.46-113.47,30.69-170.72,44a1471.39,1471.39,0,0,1-210.41,33.25c-28.68,2.41-57.42,4.29-86.17,4.74-48.62.78-97.24,1.27-145.85-1.4-30.22-1.66-60.37-3.87-90.47-7q-44.88-4.7-89.31-12.43c-48.44-8.42-96.27-19.65-143.79-32.27-53.1-14.1-105.83-29.62-159.42-41.86C163.16,87.31,108.24,78.89,52.5,76,35,75.14,17.58,74.64.1,75.05Z"/><path class="cls-2" d="M.1,75.05c17.48-.41,34.93.09,52.4,1,55.74,2.85,110.66,11.27,165,23.67C271.12,112,323.85,127.47,377,141.57c47.52,12.62,95.35,23.85,143.79,32.27q44.43,7.72,89.31,12.43c30.1,3.14,60.25,5.35,90.47,7,48.61,2.67,97.23,2.18,145.85,1.4,28.75-.45,57.49-2.33,86.17-4.74A1471.39,1471.39,0,0,0,1143,156.69c57.25-13.32,113.75-29.55,170.72-44,39.43-10,79.12-18.86,119.31-25.22q40.62-6.43,81.65-9.57c27.57-2.15,55.16-3,82.79-3.11a23.2,23.2,0,0,1,2.48.27c0,49.79-.05,99.58.1,149.36,0,3.75-.85,4.59-4.6,4.59q-497.94-.15-995.88-.09-297.47,0-594.92.09C.85,229,0,228.16,0,224.41.15,174.63.1,124.84.1,75.05Z"/></g></g></svg>